/* XPM */
static char *_e4d76d620044d20ae1504f6306e07f9Pf7tnc71QGu8Lr8u[] = {
/* columns rows colors chars-per-pixel */
"64 64 10 1 ",
"  c None",
". c black",
"X c #2B2411",
"o c #3B3515",
"O c #7E6C3B",
"+ c #A0945A",
"@ c #EFCD6E",
"# c #0099DB",
"$ c #2CE8F5",
"% c #FBF2D7",
/* pixels */
"                                                                ",
"                                                                ",
"                                                                ",
"                                                                ",
"                                                                ",
"                                                                ",
"                                                                ",
"                                    @@@@@                       ",
"                                  @@@@@@@@                      ",
"                                @@@@@@@@@@@@                    ",
"                      @@@@     @@@@@@@@@@@@@@                   ",
"                       @@@@@  OOOOOOOOOOOOO@@                   ",
"                        @@@@@@@@@@@@@@@@@@@OO@                  ",
"                         @@@@@@@@@@@@@@@@@@@@O                  ",
"                            @@@@@@@@@@@@@@@@@@O                 ",
"                             .....%%%%....@@@@@@@               ",
"                             ....%%%%%%......@@@@@@             ",
"                            ...%%%%%%%%%......@@@@@@            ",
"                             .%%%%%%%%%%%.....                  ",
"                              %%%%%%%%%%%%%...                  ",
"                              %%%%%%%%%%%%%%.                   ",
"                               %%%%%%%%%%%%%                    ",
"                                 %%%%%%%%%                      ",
"                                   %%%%                         ",
"                                   %%%%                         ",
"                                   $$$$                         ",
"                                  $$$$$$                        ",
"                                 #$$$$$#$                       ",
"                                 #$$$$$##                       ",
"                                 #$$$$$##                       ",
"                                 %$$$$$%#                       ",
"                                 %$$$$$%%                       ",
"                                 %$$$$$%%                       ",
"                                 %$$$$$%%                       ",
"                                 %$$$$$%%                       ",
"                                 %$$$$$%%                       ",
"                                 %$$$$$%%                       ",
"                                %%$$$$%%%                       ",
"                                %%$$$$%%%                       ",
"                                 %$$$$$%%                       ",
"                                  $$$$$$$                       ",
"                                  $$$$$$$                       ",
"                                  OOOOOOO                       ",
"                                  OOOOOOO                       ",
"                                  OOOOOOO                       ",
"                                  OOOOOOO                       ",
"                                  OO+OOOO                       ",
"                                  OOO+OOO                       ",
"                                  OOO+OOO                       ",
"                                  %OO %OO                       ",
"                                  %%% %%%                       ",
"                                  %%% %%%                       ",
"                                  %%% %%%                       ",
"                                  %%% %%%                       ",
"                                  %%% %%%                       ",
"                                  XX% %XX                       ",
"                                  XXX XXX                       ",
"                                 XXXX XXX                       ",
"                                XXoX XXoX                       ",
"                               XXoX XXoX                        ",
"                                                                ",
"                                                                ",
"                                                                ",
"                                                                "
};
