/* XPM */
static char *result[] = {
/* columns rows colors chars-per-pixel */
"20 21 170 2 ",
"   c #060303",
".  c #0B0403",
"X  c #140705",
"o  c #180706",
"O  c #1D0A07",
"+  c #1B0E0A",
"@  c #1F180E",
"#  c #250B06",
"$  c #230D09",
"%  c #290F09",
"&  c #23130A",
"*  c #2B150C",
"=  c #38190E",
"-  c #271E19",
";  c #361E10",
":  c #391F11",
">  c #34200F",
",  c #2B2115",
"<  c #2B251D",
"1  c #332716",
"2  c #3C2213",
"3  c #3C2518",
"4  c #362D18",
"5  c #3B2B1C",
"6  c #36311D",
"7  c #3B331C",
"8  c #2A2122",
"9  c #2B2A2D",
"0  c #342625",
"q  c #3B2B26",
"w  c #302E2F",
"e  c #3D3522",
"r  c #3D3533",
"t  c #393634",
"y  c #40190D",
"u  c #472312",
"i  c #4B2D16",
"p  c #492B19",
"a  c #502B17",
"s  c #51351B",
"d  c #583119",
"f  c #5A3A1F",
"g  c #623C1C",
"h  c #412B24",
"j  c #443523",
"k  c #453C22",
"l  c #4A3B27",
"z  c #4D3628",
"x  c #463F28",
"c  c #4D3A2D",
"v  c #583422",
"b  c #523B23",
"n  c #5E3E25",
"m  c #513D2D",
"M  c #463C36",
"N  c #483E39",
"B  c #613925",
"V  c #683E2C",
"C  c #4A4126",
"Z  c #4F492B",
"A  c #514021",
"S  c #53442C",
"D  c #59472D",
"F  c #51492B",
"G  c #5A4C2D",
"H  c #4F4330",
"J  c #4C4935",
"K  c #48463F",
"L  c #584636",
"P  c #5A463B",
"I  c #5D4B3D",
"U  c #575130",
"Y  c #5B5133",
"T  c #58533D",
"R  c #6B4825",
"E  c #6A462B",
"W  c #6A492A",
"Q  c #75502C",
"!  c #654D34",
"~  c #6C4831",
"^  c #634E3D",
"/  c #724935",
"(  c #6A5236",
")  c #6B5238",
"_  c #645B3C",
"`  c #6B593B",
"'  c #795634",
"]  c #7D5B37",
"[  c #73533A",
"{  c #735A3D",
"}  c #7E5A3A",
"|  c #6A613E",
" . c #544A43",
".. c #5D4D43",
"X. c #594E4A",
"o. c #5A5540",
"O. c #5D544E",
"+. c #5D5551",
"@. c #5F5852",
"#. c #645446",
"$. c #695446",
"%. c #6B564A",
"&. c #6B594C",
"*. c #735C43",
"=. c #7A5B45",
"-. c #735D4A",
";. c #635B55",
":. c #645E59",
">. c #715E50",
",. c #696346",
"<. c #736346",
"1. c #7B6246",
"2. c #796249",
"3. c #66615B",
"4. c #756355",
"5. c #796D5F",
"6. c #767057",
"7. c #7E795F",
"8. c #776E61",
"9. c #7A7164",
"0. c #815C3B",
"q. c #85633F",
"w. c #825D43",
"e. c #875D48",
"r. c #836143",
"t. c #8A6249",
"y. c #8C694C",
"u. c #84704F",
"i. c #92704F",
"p. c #8B6153",
"a. c #866D51",
"s. c #8B6E55",
"d. c #926C55",
"f. c #8F7357",
"g. c #957556",
"h. c #9A7756",
"j. c #907258",
"k. c #94795F",
"l. c #9B7B5D",
"z. c #847B6D",
"x. c #957960",
"c. c #9C7C64",
"v. c #A27E69",
"b. c #9A8164",
"n. c #9F856B",
"m. c #9F8A6E",
"M. c #848271",
"N. c #8D8476",
"B. c #8E8578",
"V. c #93927D",
"C. c #A08666",
"Z. c #A4846D",
"A. c #A28970",
"S. c #AD8E77",
"D. c #AA9677",
"F. c #AC947A",
"G. c #B69B7F",
"H. c #9F9C87",
"J. c #A3A08C",
"K. c #B7A589",
"L. c #B9A688",
"P. c #A7A490",
"I. c #B9B6A6",
"U. c #C1B093",
"Y. c #C2C1B2",
"T. c #D5D4C8",
"R. c #E3E0DB",
"E. c #EDEDE6",
"W. c #F4F4F1",
"Q. c #FFFFFE",
/* pixels */
"Q.Q.Q.Q.T.M.J 6 C Z T M.M.V.Y.E.Q.Q.Q.Q.",
"Q.Q.W.I.6.x l F U U 4 , , e T M.Y.W.Q.Q.",
"Q.W.P.,.Y Y G S j 7 7 1 , , 4 C _ V.R.Q.",
"W.J.` | _ 7 @ + & > A G j k e C k F 7.T.",
"H.| <.` ,   . + 2 ( u.` A 3 5 C Z 7 Z ,.",
"Y | _ 1 . + l r.C.G.L.D.u.D 2 2 D H 6 F ",
"K K M w 9 r  .O.3.;.3.:.@...N r t K t r ",
"h $.5.8.6.9.M.B.N.N.N.z.8.;. .#.%.c < 0 ",
"p [ *.S j z <.G.U.U.K.u.! j 5 m ( b & * ",
"s ` =.=.*.( *.x.K.L.m.1.( ( =.2.1.~ 2 * ",
"p s S H H L ) s.D.K.k.[ n m M z b f 2 & ",
"i u c M q <.{ x.S.G.j.=.` o.< c : s ; $ ",
"E W ` <.-.p.x.n.Z.Z.s.f.a.=.^ ) n W 2 X ",
"0.g.b.Z.A.F.F.b.v.c.d.g.Z.c.x.f.y.} p X ",
" .O.;.;.:.:.+.X.#.X. . .+.@.+.+.X. .r 9 ",
"z ^ -.4.>.4.>.>.%.%.&.&.&.&.$.I c 8 - 9 ",
"g } h.h.r.e.t.t.e.e.t.t.y.y.t.' a # o 8 ",
"g ' g.i.[ B V / V V B v E ] 0.B y # O 0 ",
"g Q i.h.l.d.p.p.p.=./ ' } 0.' d = # # 0 ",
"d R q.g.l.c.d.e.w.e.w.r.w.] R u % O * 8 ",
"q m I #.%.&.#...P I I ..I L m q 8 8 0 9 "
};
