/* XPM */
static char *result[] = {
/* columns rows colors chars-per-pixel */
"16 17 136 2 ",
"   c #0F0605",
".  c #0E0906",
"X  c #1A0906",
"o  c #130B08",
"O  c #230C08",
"+  c #26170F",
"@  c #29150D",
"#  c #21190F",
"$  c #33120A",
"%  c #3C1B0E",
"&  c #2C1A12",
"*  c #241D1D",
"=  c #281B1B",
"-  c #2D2416",
";  c #332215",
":  c #3E2718",
">  c #352B1A",
",  c #271E20",
"<  c #2C282B",
"1  c #3B2520",
"2  c #3E3221",
"3  c #393434",
"4  c #4D2614",
"5  c #472B16",
"6  c #4A2C17",
"7  c #452C1B",
"8  c #4A2C1A",
"9  c #48391E",
"0  c #543119",
"q  c #5C351B",
"w  c #452E25",
"e  c #4F3122",
"r  c #453D22",
"t  c #413329",
"y  c #443D29",
"u  c #4C3A2C",
"i  c #533B24",
"p  c #5B3C23",
"a  c #543D2C",
"s  c #433D37",
"d  c #4A3C31",
"f  c #513E30",
"g  c #633C29",
"h  c #66401F",
"j  c #4A4526",
"k  c #4C4229",
"l  c #5A422B",
"z  c #534A2C",
"x  c #48413D",
"c  c #554435",
"v  c #5D4731",
"b  c #564C31",
"n  c #57483C",
"m  c #5D4A3A",
"M  c #66422C",
"N  c #604E2E",
"B  c #714D2D",
"V  c #6D4534",
"C  c #634C34",
"Z  c #6A4C31",
"A  c #634D3B",
"S  c #754C3C",
"D  c #6C553D",
"F  c #635A3B",
"G  c #6D5F3F",
"H  c #7A5634",
"J  c #7A563B",
"K  c #72593D",
"L  c #7E5A39",
"P  c #444241",
"I  c #4A4643",
"U  c #4E4943",
"Y  c #514A45",
"T  c #595440",
"R  c #5C5650",
"E  c #655243",
"W  c #6A5646",
"Q  c #6A5B44",
"!  c #67554A",
"~  c #6A5448",
"^  c #6C5C4D",
"/  c #755D44",
"(  c #7C5D43",
")  c #605951",
"_  c #645F59",
"`  c #725F54",
"'  c #6C6443",
"]  c #6B6449",
"[  c #7A6644",
"{  c #73624D",
"}  c #7D634A",
"|  c #66625C",
" . c #736153",
".. c #716B53",
"X. c #75665A",
"o. c #756A5C",
"O. c #757157",
"+. c #7B6F63",
"@. c #737062",
"#. c #7C7365",
"$. c #825F3C",
"%. c #85613F",
"&. c #825B42",
"*. c #855E49",
"=. c #846344",
"-. c #896544",
";. c #84654B",
":. c #8F6653",
">. c #886D52",
",. c #916F53",
"<. c #8B7156",
"1. c #85755E",
"2. c #8E725B",
"3. c #967453",
"4. c #9A7857",
"5. c #91755B",
"6. c #9B7B5D",
"7. c #927E62",
"8. c #A27F66",
"9. c #8D8873",
"0. c #998972",
"q. c #A4836C",
"w. c #A38A6F",
"e. c #A89274",
"r. c #AC977B",
"t. c #B0927A",
"y. c #A89A82",
"u. c #B2A48C",
"i. c #B9A68A",
"p. c #A9A696",
"a. c #B3B19F",
"s. c #CBC9BD",
"d. c #E2E1D9",
"f. c #F1F0ED",
"g. c #F7F7F4",
"h. c #FEFFFE",
/* pixels */
"h.h.h.s.o.y r z T @.#.p.d.h.h.h.",
"h.g.a.] k z z z > # - y ..a.f.h.",
"g.p.' F k > - ; 9 r > > r b 9.d.",
"y.' G 2 .   @ l [ N 9 2 k r j O.",
"F Q k o + l <.e.y.7.D 7 : b 2 k ",
"s I I P Y ) | | _ _ R U x x 3 3 ",
"e } { E ] 0.u.u.y.1.T u m C ; & ",
"9 K D A v } r.i.w.K M A / / 8 @ ",
"8 i c f A ( q.i.5.Z l d u p 5 @ ",
"0 8 n s / <.8.t.>./ Q t u 6 5 O ",
"H =.2.2.7.w.8.8.,.6.5.;.( J p X ",
"W o.+.+.1.X.` ` ~ ` X.X. .! c * ",
"f E ` ^ ` ` ~ ~ ! ! ! ! n t , < ",
"h -.4.=.S &.&.&.&.( =.-.B % X = ",
"h %.3.;.S &.S V g M H L q $ X 1 ",
"q H 3.6.7.:.*.*.&.=.$.B 4 O O , ",
"w l Q {  .W A A E D A a 1 = = < "
};
