/* XPM */
static char *result[] = {
/* columns rows colors chars-per-pixel */
"25 27 198 2 ",
"   c #050102",
".  c #0D0505",
"X  c #140705",
"o  c #130906",
"O  c #1C0906",
"+  c #150C08",
"@  c #1C0B08",
"#  c #1F1814",
"$  c #2B0E07",
"%  c #230D09",
"&  c #2A0E09",
"*  c #24120B",
"=  c #2A140C",
"-  c #22180E",
";  c #2D180D",
":  c #32160F",
">  c #38170D",
",  c #311C0E",
"<  c #251C14",
"1  c #391F13",
"2  c #252010",
"3  c #2C2213",
"4  c #322615",
"5  c #392617",
"6  c #322916",
"7  c #3C2B1B",
"8  c #393317",
"9  c #3C341D",
"0  c #2C2222",
"q  c #2B2924",
"w  c #262529",
"e  c #2A2629",
"r  c #352925",
"t  c #342B2B",
"y  c #382D2B",
"u  c #3C3322",
"i  c #3D382A",
"p  c #2E2D32",
"a  c #343236",
"s  c #383435",
"d  c #343439",
"f  c #383739",
"g  c #3D3C3D",
"h  c #421B0E",
"j  c #442514",
"k  c #4A2916",
"l  c #4C2C17",
"z  c #452E1B",
"x  c #4F2D1A",
"c  c #542D16",
"v  c #48351D",
"b  c #53371B",
"n  c #54351A",
"m  c #5B331B",
"M  c #5E391D",
"N  c #613B1C",
"B  c #453622",
"V  c #4D3622",
"C  c #443B22",
"Z  c #493928",
"A  c #4A3B2B",
"S  c #5C3322",
"D  c #533A24",
"F  c #5C3B21",
"G  c #443934",
"H  c #483A33",
"J  c #433D3A",
"K  c #523E33",
"L  c #623726",
"P  c #643D29",
"I  c #683F28",
"U  c #4C4325",
"Y  c #47422B",
"T  c #4C442C",
"R  c #52462C",
"E  c #5E442B",
"W  c #534A2D",
"Q  c #5C4C2D",
"!  c #57512F",
"~  c #4E4234",
"^  c #41403F",
"/  c #49423E",
"(  c #554533",
")  c #5A4533",
"_  c #594B34",
"`  c #52453D",
"'  c #5A493C",
"]  c #5B5333",
"[  c #5B543A",
"{  c #6A4624",
"}  c #6C4826",
"|  c #69462C",
" . c #644B2E",
".. c #714C2B",
"X. c #73512C",
"o. c #654C33",
"O. c #694B35",
"+. c #724C35",
"@. c #645333",
"#. c #6E5335",
"$. c #6C553B",
"%. c #645A3B",
"&. c #675D3B",
"*. c #755333",
"=. c #7C5A35",
"-. c #75553A",
";. c #7B553B",
":. c #725A3D",
">. c #7B5A3B",
",. c #6A603E",
"<. c #4C4543",
"1. c #4E4946",
"2. c #4E4C4C",
"3. c #534943",
"4. c #5A4D45",
"5. c #524B49",
"6. c #5D5144",
"7. c #5E524A",
"8. c #635A43",
"9. c #64574B",
"0. c #675A48",
"q. c #7B5543",
"w. c #775C41",
"e. c #645751",
"r. c #655A54",
"t. c #6C6242",
"y. c #6A644B",
"u. c #716342",
"i. c #7A6445",
"p. c #76624C",
"a. c #7B654A",
"s. c #6A6955",
"d. c #6A625C",
"f. c #766953",
"g. c #787356",
"h. c #766D62",
"j. c #7A7267",
"k. c #7E7C63",
"l. c #7E766B",
"z. c #815D3C",
"x. c #84613F",
"c. c #835C43",
"v. c #845B4B",
"b. c #8A5E52",
"n. c #856244",
"m. c #886543",
"M. c #83664C",
"N. c #83694D",
"B. c #8E6B4C",
"V. c #906B4E",
"C. c #85704F",
"Z. c #93714F",
"A. c #806450",
"S. c #8C6353",
"D. c #876B52",
"F. c #8D6C52",
"G. c #926E55",
"H. c #8C7055",
"J. c #947355",
"K. c #9A7857",
"L. c #94755A",
"P. c #98745A",
"I. c #95795C",
"U. c #9B7B5C",
"Y. c #817B6E",
"T. c #967B61",
"R. c #9C7C63",
"E. c #A27E67",
"W. c #9C8369",
"Q. c #9C8468",
"!. c #928E77",
"~. c #A3876B",
"^. c #A4846E",
"/. c #A68C71",
"(. c #AC8B76",
"). c #A59374",
"_. c #AA9274",
"`. c #AD957B",
"'. c #AE9A7E",
"]. c #B3927C",
"[. c #9A9985",
"{. c #9E998C",
"}. c #AF9B80",
"|. c #B49D82",
" X c #B6A589",
".X c #BCA58B",
"XX c #BDAA8D",
"oX c #AEAD9E",
"OX c #B7B6A5",
"+X c #C0AE92",
"@X c #C4B397",
"#X c #C5C3B4",
"$X c #C9C8BB",
"%X c #DBD9CD",
"&X c #E6E6DC",
"*X c #EEEEE6",
"=X c #F9F8F5",
"-X c #FEFEFE",
/* pixels */
"-X-X-X-X-X*XoXs.T u C W ! s.{.{.[.OX&X=X-X-X-X-X-X",
"-X-X-X-X%X[.6.i C 9 W ! C u s u Y y.Y.OX&X-X-X-X-X",
"-X-X-X#Xg.%.U C ! ] Q ! T 2 o - < 6 Y [ g.#X=X-X-X",
"-X-XOXg.%.] %.@.W Z 9 6 6 v 9 3 4 3 8 Y ] y.{.*X-X",
"-X#Xf.,.,.,.Y 2 + o * , 8 ! Q v C B C v v U [ !.&X",
"$Xf.,.u.t.9 o     . * l @.>.@.U C B A _ U 8 U ] k.",
"y.&.,.,.v o   o 3 D >.Q._.).C.@.z ; * 7 [ W 3 T W ",
"] ,.,.R - . - V =.Q._.'.XXXX'.Q.N. .j 5 v ,.u 7 R ",
"^ ^ ^ f a a s g / 1.2.2.2.2.2.2.<.J g f s g g d g ",
"r K p.j.j.j.j.Y.!.l.Y.Y.Y.Y.l.j.h.r.e.e.r.' r 0 y ",
"j -.D.a._ ( ( p.!.@X@X@X@X XW.0.K 5 5 V O. ., % : ",
"j E $.o.( K Z D $.Q. X.X XQ.:.o.) ` o.p.i.$.z & ; ",
"x #.u.a.N.a.$.-.M.T.`.|.'.I.w.-.o.-.w.:.:.-.F ; ; ",
"j b D R A ~ R  .w.G.`.+X'.N.#.M D K H Z D F l = * ",
"j k : ` r < 6.$.w.T.(.+X/.N.$.Q 0.q # B 1 n x * % ",
"M M c 8.9.4.a.a.L.R.^.].R.D.D.a.f.) ( %.j b b % % ",
"..>.>.i.a.a.D.T.(.~.E.(.P.B.U.T.A.q.w.$.O.-.{ * X ",
"z.J.~./._.`.}.|.(.U.E.E.G.V.P.^.^.W.R.I.J.m.*.= . ",
"4.9.r.d.d.d.d.d.e.7.e.e.4.4.7.e.r.r.r.e.7.4.` y w ",
"G J 1.3.5.1.1.5.5.3.<.<.<.<.<.<.5.1.<./ J s t p d ",
"M *.B.K.U.L.I.R.P.G.b.b.F.F.F.F.G.G.m.>.F > O X e ",
"M ..V.K.J.-.+.;.c.v.c.c.v.c.c.M.m.m.z.+.l $ O @ t ",
"N } B.K.B.;.S L I O.L P S S x P *.z.=.m h & @ % t ",
"N } m.K.J.U.S.v.b.b.v.q.+.| +.>.=.x.+.c h & + & t ",
"m } z.Z.K.U.R.P.S.S.S.S.c.c.n.>.x.=.{ k : % O : t ",
"j N X.x.H.J.U.K.B.q.*.;.>.c.c.n.=...M h & + & = w ",
"t A ( ` 4.4.7.4.4.3.` ` ` 3.` ` ` H G r e e r t d "
};
